{"title":"Romeo Ranjha 2014 [1CD DvdScr Rip] [Movies2Fun]","uid":10166817,"size":723751824,"categoryP":"video","categoryS":"movies","magnet":"?xt=urn:btih:bb831332741d21646324b0974400105a87a6a9d0&amp;dn=Romeo+Ranjha+2014+%5B1CD+DvdScr+Rip%5D+%5BMovies2Fun%5D&amp;tr=udp%3A%2F%2Ftracker.openbittorrent.com%3A80&amp;tr=udp%3A%2F%2Fopen.demonii.com%3A1337&amp;tr=udp%3A%2F%2Ftracker.coppersurfer.tk%3A6969&amp;tr=udp%3A%2F%2Fexodus.desync.com%3A6969","seeders":1,"leechers":0,"uploader":"taztoor","files":3,"time":1400350356,"description":"General\nFormat : Matroska\nFormat version : Version 4 / Version 2\nFile size : 689 MiB\nDuration : 2h 3mn\nOverall bit rate : 781 Kbps\nEncoded date : UTC 2014-05-17 14:51:25\nWriting application : mkvmerge v6.9.1 ('Blue Panther') 64bit built on Apr 18 2014 18:23:38\nWriting library : libebml v1.3.0 + libmatroska v1.4.1\n\nVideo\nID : 1\nFormat : MPEG-4 Visual\nFormat profile : Advanced Simple@L5\nFormat settings, BVOP : Yes\nFormat settings, QPel : No\nFormat settings, GMC : No warppoints\nFormat settings, Matrix : Default (H.263)\nCodec ID : V_MS/VFW/FOURCC / XVID\nCodec ID/Hint : XviD\nDuration : 2h 3mn\nBit rate : 670 Kbps\nWidth : 640 pixels\nHeight : 288 pixels\nDisplay aspect ratio : 2.222\nFrame rate mode : Constant\nFrame rate : 29.970 fps\nColor space : YUV\nChroma subsampling : 4:2:0\nBit depth : 8 bits\nScan type : Progressive\nCompression mode : Lossy\nBits/(Pixel*Frame) : 0.121\nStream size : 590 MiB (86%)\nWriting library : XviD 1.2.1 (UTC 2008-12-04)\nDefault : Yes\nForced : No\n\nAudio\nID : 2\nFormat : MPEG Audio\nFormat version : Version 1\nFormat profile : Layer 3\nMode : Joint stereo\nMode extension : MS Stereo\nCodec ID : A_MPEG/L3\nCodec ID/Hint : MP3\nDuration : 2h 3mn\nBit rate mode : Constant\nBit rate : 96.0 Kbps\nChannel count : 2 channels\nSampling rate : 32.0 KHz\nCompression mode : Lossy\nStream size : 84.6 MiB (12%)\nWriting library : LAME3.99r\nEncoding settings : -m j -V 4 -q 2 -lowpass 15.1 -b 96\nDefault : Yes\nForced : No","torrent":{"xt":"urn:btih:bb831332741d21646324b0974400105a87a6a9d0","amp;dn":"Romeo+Ranjha+2014+%5B1CD+DvdScr+Rip%5D+%5BMovies2Fun%5D","amp;tr":["udp%3A%2F%2Ftracker.openbittorrent.com%3A80","udp%3A%2F%2Fopen.demonii.com%3A1337","udp%3A%2F%2Ftracker.coppersurfer.tk%3A6969","udp%3A%2F%2Fexodus.desync.com%3A6969"],"infoHash":"bb831332741d21646324b0974400105a87a6a9d0","infoHashBuffer":{"type":"Buffer","data":[187,131,19,50,116,29,33,100,99,36,176,151,68,0,16,90,135,166,169,208]},"announce":[],"urlList":[]}}